# xmcd
#
# Track frame offsets: 
#        150
#        18301
#        38005
#        55861
#        70718
#        96120
#        112651
#        130476
#        146139
#        161856
#        188032
#
# Disc length: 2725 seconds
#
# Revision: 0
# Processed by: cddbd v1.5.2PL0 Copyright (c) Steve Scherf et al.
# Submitted via: ExactAudioCopyFreeDBPlugin 1.0
#
DISCID=910aa30b
DTITLE=Home Of The Lame - Sing What You Know
DYEAR=2008
DGENRE=Country
TTITLE0=Old Songs
TTITLE1=The Radio
TTITLE2=For The Most Part
TTITLE3=After Traveling
TTITLE4=Maria
TTITLE5=Engine
TTITLE6=Food For Songs
TTITLE7=What You Were About
TTITLE8=Big Machines
TTITLE9=A Narrow Path
TTITLE10=Said And Sung
EXTD=
EXTT0=
EXTT1=
EXTT2=
EXTT3=
EXTT4=
EXTT5=
EXTT6=
EXTT7=
EXTT8=
EXTT9=
EXTT10=
PLAYORDER=
